<svg width="4" height="19" viewBox="0 0 4 19" fill="none" xmlns="http://www.w3.org/2000/svg">
<path fill-rule="evenodd" clip-rule="evenodd" d="M1.166 17.748C1.32977 17.8587 1.51379 17.9359 1.70748 17.9752C1.90118 18.0145 2.10073 18.0151 2.29468 17.977C2.48862 17.939 2.67313 17.863 2.8376 17.7534C3.00208 17.6438 3.14326 17.5027 3.25306 17.3384C3.36285 17.174 3.43908 16.9896 3.47737 16.7957C3.51566 16.6018 3.51525 16.4023 3.47617 16.2085C3.43709 16.0148 3.36011 15.8307 3.24964 15.6668C3.13918 15.5029 2.99742 15.3624 2.8325 15.2535C2.50192 15.0503 2.10544 14.983 1.72634 15.066C1.34725 15.1489 1.01505 15.3755 0.799523 15.6982C0.583998 16.0209 0.501924 16.4146 0.570541 16.7966C0.639159 17.1785 0.853128 17.519 1.1675 17.7465L1.166 17.748ZM2 10.5C1.60218 10.5 1.22064 10.342 0.93934 10.0607C0.658036 9.77936 0.5 9.39782 0.5 9C0.5 8.60218 0.658036 8.22064 0.93934 7.93934C1.22064 7.65804 1.60218 7.5 2 7.5C2.39782 7.5 2.77936 7.65804 3.06066 7.93934C3.34196 8.22064 3.5 8.60218 3.5 9C3.5 9.39782 3.34196 9.77936 3.06066 10.0607C2.77936 10.342 2.39782 10.5 2 10.5ZM2 3C1.60218 3 1.22064 2.84196 0.93934 2.56066C0.658036 2.27936 0.5 1.89782 0.5 1.5C0.5 1.10218 0.658036 0.720644 0.93934 0.43934C1.22064 0.158035 1.60218 0 2 0C2.39782 0 2.77936 0.158035 3.06066 0.43934C3.34196 0.720644 3.5 1.10218 3.5 1.5C3.5 1.89782 3.34196 2.27936 3.06066 2.56066C2.77936 2.84196 2.39782 3 2 3Z" fill="black"/>
</svg>
