<svg width="56" height="46" viewBox="0 0 56 46" fill="none" xmlns="http://www.w3.org/2000/svg">
<path d="M49.175 7.075C50.15 8.05 50.15 9.6 49.175 10.575L20.825 38.925C20.5962 39.1566 20.3237 39.3405 20.0233 39.466C19.7229 39.5915 19.4006 39.6561 19.075 39.6561C18.7494 39.6561 18.4271 39.5915 18.1267 39.466C17.8263 39.3405 17.5538 39.1566 17.325 38.925L6.825 28.425C6.5934 28.1962 6.40952 27.9237 6.28402 27.6233C6.15852 27.3229 6.0939 27.0006 6.0939 26.675C6.0939 26.3494 6.15852 26.0271 6.28402 25.7267C6.40952 25.4263 6.5934 25.1538 6.825 24.925C7.05381 24.6934 7.32631 24.5095 7.62671 24.384C7.92711 24.2585 8.24944 24.1939 8.575 24.1939C8.90056 24.1939 9.22289 24.2585 9.52329 24.384C9.82369 24.5095 10.0962 24.6934 10.325 24.925L19.075 33.675L45.675 7.075C45.9038 6.8434 46.1763 6.65952 46.4767 6.53402C46.7771 6.40852 47.0994 6.3439 47.425 6.3439C47.7506 6.3439 48.0729 6.40852 48.3733 6.53402C48.6737 6.65952 48.9462 6.8434 49.175 7.075ZM43.9 1.775L19.075 26.6L12.1 19.625C10.15 17.675 6.975 17.675 5.025 19.625L1.525 23.125C-0.425 25.075 -0.425 28.25 1.525 30.2L15.525 44.2C17.475 46.15 20.65 46.15 22.6 44.2L54.475 12.35C56.425 10.4 56.425 7.225 54.475 5.275L50.975 1.775C49 -0.175 45.85 -0.175 43.9 1.775Z" fill="black"/>
</svg>
