<svg width="8" height="8" viewBox="0 0 8 8" fill="none" xmlns="http://www.w3.org/2000/svg">
<path fill-rule="evenodd" clip-rule="evenodd" d="M7.854 0.146039C7.90056 0.192485 7.9375 0.247661 7.96271 0.308406C7.98792 0.369151 8.00089 0.434272 8.00089 0.500039C8.00089 0.565807 7.98792 0.630928 7.96271 0.691673C7.9375 0.752418 7.90056 0.807594 7.854 0.854039L0.853998 7.85404C0.760112 7.94793 0.632774 8.00067 0.499998 8.00067C0.367223 8.00067 0.239885 7.94793 0.145998 7.85404C0.0521116 7.76015 -0.000633239 7.63281 -0.00063324 7.50004C-0.000633241 7.36726 0.0521116 7.23993 0.145998 7.14604L7.146 0.146039C7.19244 0.099476 7.24762 0.062533 7.30836 0.0373266C7.36911 0.0121201 7.43423 -0.000854492 7.5 -0.000854492C7.56577 -0.000854492 7.63089 0.0121201 7.69163 0.0373266C7.75238 0.062533 7.80755 0.099476 7.854 0.146039Z" fill="black"/>
<path fill-rule="evenodd" clip-rule="evenodd" d="M0.146001 0.146039C0.0994379 0.192485 0.0624949 0.247661 0.0372884 0.308406C0.012082 0.369151 -0.000892639 0.434272 -0.000892639 0.500039C-0.000892639 0.565807 0.012082 0.630928 0.0372884 0.691673C0.0624949 0.752418 0.0994379 0.807594 0.146001 0.854039L7.146 7.85404C7.23989 7.94793 7.36723 8.00067 7.5 8.00067C7.63278 8.00067 7.76011 7.94793 7.854 7.85404C7.94789 7.76015 8.00063 7.63281 8.00063 7.50004C8.00063 7.36726 7.94789 7.23993 7.854 7.14604L0.854001 0.146039C0.807556 0.099476 0.75238 0.062533 0.691635 0.0373266C0.63089 0.0121201 0.565768 -0.000854492 0.500001 -0.000854492C0.434234 -0.000854492 0.369113 0.0121201 0.308367 0.0373266C0.247622 0.062533 0.192447 0.099476 0.146001 0.146039Z" fill="black"/>
</svg>
