<svg width="8" height="8" viewBox="0 0 8 8" fill="none" xmlns="http://www.w3.org/2000/svg">
<circle cx="4" cy="4" r="4" fill="#D9D9D9"/>
<path fill-rule="evenodd" clip-rule="evenodd" d="M5.44543 2.55484C5.46289 2.57226 5.47674 2.59295 5.48619 2.61573C5.49565 2.63851 5.50051 2.66293 5.50051 2.68759C5.50051 2.71225 5.49565 2.73667 5.48619 2.75945C5.47674 2.78223 5.46289 2.80292 5.44543 2.82034L2.82043 5.44534C2.78522 5.48055 2.73747 5.50033 2.68768 5.50033C2.63788 5.50033 2.59013 5.48055 2.55493 5.44534C2.51972 5.41013 2.49994 5.36238 2.49994 5.31259C2.49994 5.2628 2.51972 5.21505 2.55493 5.17984L5.17993 2.55484C5.19734 2.53738 5.21803 2.52353 5.24081 2.51407C5.26359 2.50462 5.28801 2.49976 5.31268 2.49976C5.33734 2.49976 5.36176 2.50462 5.38454 2.51407C5.40732 2.52353 5.42801 2.53738 5.44543 2.55484Z" fill="black"/>
<path fill-rule="evenodd" clip-rule="evenodd" d="M2.55475 2.55484C2.53729 2.57226 2.52343 2.59295 2.51398 2.61573C2.50453 2.63851 2.49966 2.66293 2.49966 2.68759C2.49966 2.71225 2.50453 2.73667 2.51398 2.75945C2.52343 2.78223 2.53729 2.80292 2.55475 2.82034L5.17975 5.44534C5.21496 5.48055 5.26271 5.50033 5.3125 5.50033C5.36229 5.50033 5.41004 5.48055 5.44525 5.44534C5.48046 5.41013 5.50024 5.36238 5.50024 5.31259C5.50024 5.2628 5.48046 5.21505 5.44525 5.17984L2.82025 2.55484C2.80283 2.53738 2.78214 2.52353 2.75936 2.51407C2.73658 2.50462 2.71216 2.49976 2.6875 2.49976C2.66284 2.49976 2.63842 2.50462 2.61564 2.51407C2.59286 2.52353 2.57217 2.53738 2.55475 2.55484Z" fill="black"/>
</svg>
