<svg width="93" height="121" viewBox="0 0 93 121" fill="none" xmlns="http://www.w3.org/2000/svg">
<rect width="93" height="121" rx="5" fill="#C1DAFF"/>
<path d="M51.6719 60.1875H47.8125V56.3281C47.8125 56.2164 47.7211 56.125 47.6094 56.125H46.3906C46.2789 56.125 46.1875 56.2164 46.1875 56.3281V60.1875H42.3281C42.2164 60.1875 42.125 60.2789 42.125 60.3906V61.6094C42.125 61.7211 42.2164 61.8125 42.3281 61.8125H46.1875V65.6719C46.1875 65.7836 46.2789 65.875 46.3906 65.875H47.6094C47.7211 65.875 47.8125 65.7836 47.8125 65.6719V61.8125H51.6719C51.7836 61.8125 51.875 61.7211 51.875 61.6094V60.3906C51.875 60.2789 51.7836 60.1875 51.6719 60.1875Z" fill="white"/>
<path d="M47 49.625C40.7184 49.625 35.625 54.7184 35.625 61C35.625 67.2816 40.7184 72.375 47 72.375C53.2816 72.375 58.375 67.2816 58.375 61C58.375 54.7184 53.2816 49.625 47 49.625ZM47 70.4453C41.7848 70.4453 37.5547 66.2152 37.5547 61C37.5547 55.7848 41.7848 51.5547 47 51.5547C52.2152 51.5547 56.4453 55.7848 56.4453 61C56.4453 66.2152 52.2152 70.4453 47 70.4453Z" fill="white"/>
</svg>
