<svg width="16" height="16" viewBox="0 0 16 16" fill="none" xmlns="http://www.w3.org/2000/svg">
<path fill-rule="evenodd" clip-rule="evenodd" d="M0.5 8C0.632608 8 0.759785 8.05268 0.853553 8.14645C0.947322 8.24021 1 8.36739 1 8.5V12C1 12.2652 1.10536 12.5196 1.29289 12.7071C1.48043 12.8946 1.73478 13 2 13H14C14.2652 13 14.5196 12.8946 14.7071 12.7071C14.8946 12.5196 15 12.2652 15 12V8.5C15 8.36739 15.0527 8.24021 15.1464 8.14645C15.2402 8.05268 15.3674 8 15.5 8C15.6326 8 15.7598 8.05268 15.8536 8.14645C15.9473 8.24021 16 8.36739 16 8.5V12C16 12.5304 15.7893 13.0391 15.4142 13.4142C15.0391 13.7893 14.5304 14 14 14H2C1.46957 14 0.960859 13.7893 0.585786 13.4142C0.210714 13.0391 0 12.5304 0 12V8.5C0 8.36739 0.0526784 8.24021 0.146447 8.14645C0.240215 8.05268 0.367392 8 0.5 8Z" fill="#0085FF"/>
<path fill-rule="evenodd" clip-rule="evenodd" d="M4.99991 7.5C5.09367 7.40626 5.22083 7.3536 5.35341 7.3536C5.48599 7.3536 5.61314 7.40626 5.70691 7.5L7.99991 9.793L10.2929 7.5C10.339 7.45224 10.3942 7.41415 10.4552 7.38794C10.5162 7.36174 10.5818 7.34795 10.6482 7.34737C10.7146 7.34679 10.7804 7.35944 10.8419 7.38458C10.9033 7.40972 10.9592 7.44685 11.0061 7.4938C11.0531 7.54074 11.0902 7.59657 11.1153 7.65802C11.1405 7.71947 11.1531 7.78531 11.1525 7.8517C11.152 7.91809 11.1382 7.9837 11.112 8.0447C11.0858 8.1057 11.0477 8.16087 10.9999 8.20699L8.35391 10.854C8.30746 10.9006 8.25229 10.9375 8.19154 10.9627C8.1308 10.9879 8.06568 11.0009 7.99991 11.0009C7.93414 11.0009 7.86902 10.9879 7.80828 10.9627C7.74753 10.9375 7.69235 10.9006 7.64591 10.854L4.99991 8.20699C4.90617 8.11323 4.85352 7.98608 4.85352 7.85349C4.85352 7.72091 4.90617 7.59376 4.99991 7.5Z" fill="#0085FF"/>
<path fill-rule="evenodd" clip-rule="evenodd" d="M8 1C8.13261 1 8.25979 1.05268 8.35355 1.14645C8.44732 1.24021 8.5 1.36739 8.5 1.5V9.5C8.5 9.63261 8.44732 9.75979 8.35355 9.85355C8.25979 9.94732 8.13261 10 8 10C7.86739 10 7.74021 9.94732 7.64645 9.85355C7.55268 9.75979 7.5 9.63261 7.5 9.5V1.5C7.5 1.36739 7.55268 1.24021 7.64645 1.14645C7.74021 1.05268 7.86739 1 8 1Z" fill="#0085FF"/>
</svg>
