<svg width="152" height="88" viewBox="0 0 152 88" fill="none" xmlns="http://www.w3.org/2000/svg">
<path d="M81.3906 43.0625H76.9375V38.6094C76.9375 38.4805 76.832 38.375 76.7031 38.375H75.2969C75.168 38.375 75.0625 38.4805 75.0625 38.6094V43.0625H70.6094C70.4805 43.0625 70.375 43.168 70.375 43.2969V44.7031C70.375 44.832 70.4805 44.9375 70.6094 44.9375H75.0625V49.3906C75.0625 49.5195 75.168 49.625 75.2969 49.625H76.7031C76.832 49.625 76.9375 49.5195 76.9375 49.3906V44.9375H81.3906C81.5195 44.9375 81.625 44.832 81.625 44.7031V43.2969C81.625 43.168 81.5195 43.0625 81.3906 43.0625Z" fill="black"/>
<path d="M76 30.875C68.752 30.875 62.875 36.752 62.875 44C62.875 51.248 68.752 57.125 76 57.125C83.248 57.125 89.125 51.248 89.125 44C89.125 36.752 83.248 30.875 76 30.875ZM76 54.8984C69.9824 54.8984 65.1016 50.0176 65.1016 44C65.1016 37.9824 69.9824 33.1016 76 33.1016C82.0176 33.1016 86.8984 37.9824 86.8984 44C86.8984 50.0176 82.0176 54.8984 76 54.8984Z" fill="black"/>
<rect x="0.5" y="0.5" width="151" height="87" rx="4.5" stroke="black"/>
</svg>
